SPORT: Scrum V - Six Nations Special
On: BBC 2 Wales 
Date: Sunday 24th February 2013 
Time: 19:00 to 20:00 

Jason Mohammad presents Scrum V Six Nations Special with all the major talking points and highlights of Wales's away game against Italy. Studio guests include former Wales internationals Jonathan Davies and Kingsley Jones.



General
Complete name: 2013.02.24.Scrum.V.pdtv.x264.mp4
Format : MPEG-4
Format profile : Base Media
Codec ID : isom
File size: 507 MiB
Duration : 58mn 59s
Overall bit rate mode: Variable
Overall bit rate : 1 201 Kbps

Video
ID : 1
Format : AVC
Format/Info: Advanced Video Codec
Format profile : High@L3.1
Format settings, CABAC : Yes
Format settings, ReFrames: 4 frames
Codec ID : avc1
Codec ID/Info: Advanced Video Coding
Duration : 58mn 59s
Bit rate : 1 068 Kbps
Maximum bit rate : 3 955 Kbps
Width: 720 pixels
Height : 416 pixels
Display aspect ratio : 1.731
Frame rate mode: Constant
Frame rate : 25.000 fps
Color space: YUV
Chroma subsampling : 4:2:0
Bit depth: 8 bits
Scan type: Progressive
Bits/(Pixel*Frame) : 0.143
Stream size: 451 MiB (89%)
Writing library: x264 core 129 r2245 bc13772

Audio
ID : 2
Format : AAC
Format/Info: Advanced Audio Codec
Format profile : LC
Codec ID : 40
Duration : 58mn 59s
Bit rate mode: Variable
Bit rate : 128 Kbps
Maximum bit rate : 192 Kbps
Channel(s) : 2 channels
Channel positions: Front: L R
Sampling rate: 48.0 KHz
Compression mode : Lossy
Delay relative to video: 80ms
Stream size: 54.0 MiB (11%)
Language : English